HIERARCHY
ROOT Hips
{
  OFFSET 15.0755 103.719 48.3499
  CHANNELS 6 Xposition Yposition Zposition Zrotation Xrotation Yrotation
  JOINT RightUpLeg
  {
    OFFSET -8.9458 -8.66707 0.101652
    CHANNELS 3 Zrotation Xrotation Yrotation
    JOINT RightLeg
    {
      OFFSET 0 -44.4227 1.3727
      CHANNELS 3 Zrotation Xrotation Yrotation
      JOINT RightFoot
      {
        OFFSET 0.253549 -42.0924 -1.46059
        CHANNELS 3 Zrotation Xrotation Yrotation
        JOINT RightToes
        {
          OFFSET 0.04 -4.41509 8.4991
          CHANNELS 3 Zrotation Xrotation Yrotation
          End Site
          {
            OFFSET -0.08 -0.137448 9.77979
          }
        }
      }
    }
  }
  JOINT Spine
  {
    OFFSET 0 11.8905 0
    CHANNELS 3 Zrotation Xrotation Yrotation
    JOINT Spine1
    {
      OFFSET 0 25.6574 0.127663
      CHANNELS 3 Zrotation Xrotation Yrotation
      JOINT HEad
      {
        OFFSET 0 8.73416 0.011341
        CHANNELS 3 Zrotation Xrotation Yrotation
        End Site
        {
          OFFSET -0.29 12.7742 2.51395
        }
      }
      JOINT LeftShoulder1
      {
        OFFSET 8.99 -0.362252 -0.22
        CHANNELS 3 Zrotation Xrotation Yrotation
        JOINT LeftArm
        {
          OFFSET 10.2827 -0.00338 0.322123
          CHANNELS 3 Zrotation Xrotation Yrotation
          JOINT LeftForeArm
          {
            OFFSET 32.7669 0.099144 -1.42434
            CHANNELS 3 Zrotation Xrotation Yrotation
            JOINT LeftHand
            {
              OFFSET 27.5643 0.085362 1.02216
              CHANNELS 3 Zrotation Xrotation Yrotation
              End Site
              {
                OFFSET 16.7443 -0.6 1.50291
              }
            }
          }
        }
      }
      JOINT RightShoulder
      {
        OFFSET -8.99 -0.362252 -0.22
        CHANNELS 3 Zrotation Xrotation Yrotation
        JOINT RightArm
        {
          OFFSET -10.2827 -0.00338 0.322123
          CHANNELS 3 Zrotation Xrotation Yrotation
          JOINT RightForeArm
          {
            OFFSET -32.8971 0.099144 -1.42434
            CHANNELS 3 Zrotation Xrotation Yrotation
            JOINT RightHand
            {
              OFFSET -27.4921 0.085362 1.02216
              CHANNELS 3 Zrotation Xrotation Yrotation
              End Site
              {
                OFFSET -16.6312 -0.6 1.50291
              }
            }
          }
        }
      }
    }
  }
  JOINT LeftUpLeg
  {
    OFFSET 8.9458 -8.66707 0.101652
    CHANNELS 3 Zrotation Xrotation Yrotation
    JOINT LeftLeg
    {
      OFFSET 0 -44.4227 1.3727
      CHANNELS 3 Zrotation Xrotation Yrotation
      JOINT LeftFoot
      {
        OFFSET -0.253549 -42.0924 -1.46059
        CHANNELS 3 Zrotation Xrotation Yrotation
        JOINT LeftToes
        {
          OFFSET -0.04 -4.41509 8.4991
          CHANNELS 3 Zrotation Xrotation Yrotation
          End Site
          {
            OFFSET 0.08 -0.047448 9.77979
          }
        }
      }
    }
  }
}
MOTION
Frames:	16
Frame Time:	0.0166667
25.5533 103.531 40.4231 6.52965 -6.03835 39.9813 -19.7288 -9.12605 -21.6389 10.3038 26.0439 -32.274 33.9607 -3.04633 1.51097 0.0462048 0.000533403 0.662642 12.0106 18.9201 -26.8741 -0.00357558 0.04072 0.0431902 -2.30796 26.2093 15.8173 -0 0 1.59028e-015 -135.276 -22.949 -76.7485 -55.544 55.3614 -38.3861 -19.4974 40.8567 -7.68094 19.6333 7.021 -12.5216 165.204 -29.046 136.437 138.678 44.655 -27.4582 -21.6828 31.7742 16.146 20.8004 -14.3266 -60.407 -46.1297 1.63937 83.8067 15.4724 -5.10577 -1.78886 -1.31926e-009 1.56e-007 -4.83505e-009 
25.3489 103.743 40.7136 5.57685 -6.88074 37.8659 -18.3247 -9.33858 -13.3287 13.9028 23.8983 -38.4804 32.4079 -2.76302 1.36698 0.0462048 0.000533403 0.662642 14.0547 19.6607 -17.8774 -0.00507688 0.00239 -0.0617785 3.47324 28.6556 2.92003 1.76556e-031 -3.18055e-015 3.18055e-015 -133.164 -16.971 -70.1517 -55.6443 59.9654 -40.0972 -17.8768 29.9828 -4.53068 19.2214 8.68688 -3.16537 176.791 -25.9392 157.126 139.948 44.3228 -27.8123 -21.2073 24.3137 14.5601 24.1758 -10.5899 -52.4195 -44.415 1.8336 80.4725 15.7969 -6.27745 -0.971489 -1.31926e-009 1.56e-007 -4.83505e-009 
25.1087 103.963 41.0752 4.82393 -7.63384 35.9786 -17.2936 -9.14122 -4.39077 17.6064 20.8861 -45.4387 30.7992 -2.5614 1.20735 0.0462048 0.000533403 0.662642 15.631 20.6087 -9.97436 -0.00663292 0.00124999 -0.0665975 9.53095 29.4972 -8.88639 -3.18055e-015 0 3.18055e-015 -132.436 -11.7032 -65.2662 -55.5616 62.6827 -41.3376 -17.2657 33.3277 -7.17822 18.7835 10.0568 4.57694 -175.926 -20.8811 173.241 140.334 43.9233 -27.3875 -20.1892 28.5504 14.6166 26.9089 -6.52636 -44.219 -42.7424 2.04385 75.6791 16.2531 -7.21473 -0.189318 -1.31925e-009 1.56e-007 -4.83505e-009 
24.7882 104.159 41.4881 4.28842 -8.28295 34.3901 -16.5716 -9.0228 3.90729 20.8197 17.8031 -52.0049 29.1126 -2.45317 1.07444 0.0462048 0.000533403 0.662642 16.7675 21.6499 -3.14059 -0.00797417 0.00357814 -0.0639365 15.1341 29.1147 -19.1179 -1.59028e-015 -3.18055e-015 -1.27222e-014 -132.796 -7.25712 -61.9502 -55.4091 63.441 -41.9095 -16.6932 28.354 -5.40863 18.3722 11.2048 10.5986 -171.952 -15.8929 -174.554 140.054 43.5905 -26.4549 -20.0552 24.7341 13.5076 28.913 -2.47563 -35.8191 -41.0496 2.26272 69.6411 16.886 -7.72298 0.50605 -1.31925e-009 1.56e-007 -4.83505e-009 
24.366 104.321 41.9315 3.94391 -8.84066 33.019 -16.1031 -8.95738 11.5045 23.6086 14.7242 -58.098 27.3681 -2.39285 0.990578 0.0462048 0.000533403 0.662642 17.3686 22.3056 2.51679 -0.00887185 0.00739185 -0.058096 20.0077 28.3666 -27.5488 -3.18055e-015 -3.18055e-015 3.18055e-015 -133.575 -4.21466 -59.4226 -55.4375 63.2338 -41.9931 -16.8737 31.4979 -6.51917 17.9218 12.4739 14.8954 -169.762 -11.9451 -165.676 139.433 43.4124 -25.3704 -19.2631 27.4698 13.4393 30.2636 1.34643 -27.2297 -39.3329 2.48991 62.5662 17.6131 -7.585 1.12811 -1.31926e-009 1.56e-007 -4.83505e-009 
23.8484 104.457 42.4254 3.74618 -9.32743 31.7488 -15.7837 -8.88923 18.3552 25.9511 11.6759 -63.5941 25.5681 -2.32578 0.96512 0.0462048 0.000533403 0.662642 17.5723 22.6228 6.98351 -0.00909644 0.0112 -0.0511961 24.0374 27.5496 -34.2245 -1.59028e-015 4.77083e-015 1.27222e-014 -134.291 -2.59367 -57.2808 -55.6164 63.0555 -41.9774 -16.6868 29.0991 -5.57396 17.4237 13.7448 17.8963 -168.325 -9.16299 -159.448 138.557 43.4395 -24.2544 -19.2134 25.4785 12.7079 31.0527 4.85401 -19.4438 -37.6969 2.6981 55.7005 17.8347 -7.16463 1.57332 -1.31925e-009 1.56e-007 -4.83506e-009 
23.2418 104.577 42.9739 3.6782 -9.73104 30.6036 -15.5744 -8.80129 24.4297 27.8566 8.73409 -68.4827 23.7428 -2.24399 0.961732 0.0462048 0.000533403 0.662642 17.475 22.6574 10.307 -0.00841694 0.0145 -0.0435974 27.24 26.8819 -39.2974 -1.59028e-015 -7.95139e-015 -3.18055e-015 -134.856 -2.13548 -55.6066 -55.9268 62.9763 -41.9052 -17.0502 31.0865 -6.08973 16.941 14.9435 19.729 -167.241 -7.5401 -155.57 137.608 43.6653 -23.2653 -18.6161 27.1585 12.6486 31.4304 7.98354 -12.4318 -36.1501 2.88381 49.1423 17.5926 -6.50529 1.85855 -1.31926e-009 1.56e-007 -4.83505e-009 
22.552 104.668 43.5704 3.72762 -10.0511 29.6017 -15.4744 -8.71878 29.7092 29.4426 6.00164 -72.7896 21.9108 -2.19097 0.971623 0.0462048 0.000533403 0.662642 16.8917 23.0679 11.4878 -0.00646248 0.06776 -0.12681 29.0778 26.5167 -41.3438 -8.82781e-031 -3.18055e-015 -1.59028e-014 -135.217 -2.99454 -55.7869 -56.2565 63.0429 -41.8706 -17.0013 29.7743 -5.60535 16.7128 15.0152 19.3757 -166.851 -8.38297 -156.025 136.641 44.0878 -22.4607 -18.6136 26.0905 12.2268 31.4355 10.2758 -6.04527 -34.6421 3.95526 43.3311 16.5823 -6.02321 1.90387 -1.31925e-009 1.56e-007 -4.83505e-009 
21.8655 104.684 44.1961 3.89259 -10.2971 28.7563 -15.5816 -8.45323 33.101 30.792 3.91766 -75.4719 20.0898 -2.31403 0.993137 0.0462048 0.000533403 0.662642 15.8904 23.8121 10.8421 -0.00112089 0.06762 -0.11093 29.833 26.5751 -41.0693 0 1.59028e-015 -0 -135.504 -4.80064 -57.352 -56.5865 63.3227 -41.9227 -17.3365 30.9967 -5.75549 16.727 14.2663 17.3278 -167.243 -11.1247 -159.84 135.758 44.6703 -21.9027 -18.2367 27.096 12.2538 31.1242 11.0779 -0.11833 -33.847 7.51024 36.9864 15.2753 -6.12433 1.73385 -1.31925e-009 1.56e-007 -4.83505e-009 
21.0311 104.663 44.8253 4.15838 -10.4797 28.0808 -15.7057 -8.1057 34.772 31.9002 2.5243 -76.777 18.1881 -2.567 0.979884 0.0462048 0.000533403 0.662642 14.5873 24.8862 8.68218 0.0038412 0.06813 -0.0899502 28.13 26.2513 -37.6547 -1.59028e-015 -3.18055e-015 -3.18055e-015 -135.886 -7.28369 -60.18 -56.8659 63.8114 -42.118 -17.2994 30.2747 -5.39655 16.8998 12.7288 13.8806 -168.789 -15.3134 -166.65 134.956 45.3612 -21.5544 -18.3 26.5201 12.0786 31.3519 10.8607 4.005 -32.965 10.9849 32.3648 13.5042 -5.99562 1.53073 -1.31926e-009 1.56e-007 -4.83506e-009 
20.2252 104.471 45.3971 4.49953 -10.6163 27.5624 -16.0494 -8.00359 34.851 33.3773 2.14384 -76.9985 16.4038 -3.12837 1.03591 0.0462048 0.000533403 0.662642 13.2551 25.4847 6.39212 0.0111816 0.00296999 0.0159894 26.5963 26.2587 -34.4084 -1.59028e-015 -3.18055e-015 3.18055e-015 -136.299 -9.97863 -62.6068 -57.104 64.4366 -42.4273 -17.5515 30.9991 -5.27214 16.9419 11.712 10.4605 -170.761 -19.0965 -173.656 134.266 46.0764 -21.3603 -18.1193 27.1353 12.1919 30.3428 9.03338 7.09758 -33.1078 15.3317 28.5245 22.0352 -4.42121 2.47568 -1.31926e-009 1.56e-007 -4.83505e-009 
19.3081 104.197 45.9566 4.88114 -10.7162 27.1847 -16.4721 -7.8793 33.5487 34.9275 2.23962 -76.1471 14.4049 -3.86266 1.01941 0.0462048 0.000533403 0.662642 12.0617 26.0079 4.26578 0.0111826 -0.000420004 0.0234894 25.0211 26.0904 -31.2418 3.18055e-015 -1.59028e-015 -3.18055e-015 -136.911 -12.398 -64.9189 -57.2655 65.1335 -42.8695 -17.5349 30.565 -4.91521 16.9778 10.775 7.32507 -173.269 -22.2849 179.529 133.69 46.7649 -21.2734 -18.2338 26.8623 12.1703 29.403 6.99161 8.5104 -33.128 18.6363 26.152 30.2715 -2.93903 3.22407 -1.31925e-009 1.56e-007 -4.83505e-009 
18.3618 104.175 46.5789 5.28152 -10.7858 26.917 -16.4265 -7.33527 31.0904 35.314 2.88054 -74.3539 12.4679 -4.21937 0.869486 0.0462048 0.000533403 0.662642 10.9948 26.4585 2.33676 0.0111826 -0.000420004 0.0234894 23.4945 25.7755 -28.3083 1.59028e-015 3.18055e-015 -0 -137.649 -14.5139 -67.0357 -57.3633 65.8588 -43.4258 -17.7521 30.9358 -4.63855 16.9857 9.99296 4.57048 -176.006 -24.7491 173.196 133.261 47.3916 -21.2783 -18.2043 27.2898 12.3122 31.2743 4.93489 7.6244 -36.486 23.3721 26.4716 23.6536 -2.8357 2.59952 -1.31925e-009 1.56e-007 -4.83506e-009 
17.4927 103.87 47.1195 5.68675 -10.8272 26.7295 -16.7311 -7.24601 27.4546 36.5445 4.57533 -71.9729 10.6474 -5.08609 0.882743 0.0462048 0.000533403 0.662642 10.0385 26.8377 0.626938 0.0111826 -0.000420004 0.0234894 22.0501 25.3439 -25.6359 -1.59028e-015 0 -6.36111e-015 -138.458 -16.3296 -68.9723 -57.403 66.5668 -44.0747 -17.7868 30.6128 -4.26952 16.9597 9.36167 2.1959 -178.749 -26.5231 167.463 132.978 47.9494 -21.3503 -18.3704 27.2085 12.3398 30.8944 2.0081 6.23211 -39.6666 27.2578 27.1549 30.0044 -0.628823 3.31898 -1.31925e-009 1.56e-007 -4.83505e-009 
16.647 103.791 47.646 6.08809 -10.838 26.5923 -16.7196 -7.06608 24.0077 36.8813 6.35115 -69.8363 9.06412 -5.58235 0.84778 0.0462048 0.000533403 0.662642 9.17793 27.1456 -0.850846 0.0111826 -0.000420004 0.0234894 20.7017 24.829 -23.233 0 0 -0 -139.3 -17.8568 -70.737 -57.4059 67.2381 -44.7786 -17.9864 30.7474 -3.9231 16.9132 8.86967 0.183165 178.657 -27.695 162.397 132.845 48.4464 -21.4876 -18.4523 27.518 12.4299 32.186 -0.99445 3.16987 -45.1296 31.0122 30.2991 25.9779 -0.169491 3.0515 -1.31925e-009 1.56e-007 -4.83506e-009 
15.8347 103.687 48.0439 6.48222 -10.8098 26.4868 -16.7951 -7.11481 20.7146 37.2142 8.25836 -67.9816 7.60589 -6.08218 0.842994 0.0462048 0.000533403 0.662642 8.40143 27.3784 -2.10228 0.0111826 -0.000420004 0.0234894 19.4493 24.2623 -21.0958 1.59028e-015 0 -9.54166e-015 -140.15 -19.1075 -72.3378 -57.3694 67.86 -45.516 -18.0502 30.4948 -3.56959 16.8625 8.50063 -1.48253 176.301 -28.3721 158.037 132.835 48.9 -21.6731 -18.6443 27.5134 12.4094 32.1859 -4.01276 -0.624377 -49.5737 31.7389 34.247 28.1425 0.94444 3.43357 -1.31925e-009 1.56e-007 -4.83507e-009 
